<svg height="386pt" viewBox="1 -103 386.55601 386" width="386pt" xmlns="http://www.w3.org/2000/svg"><path d="m334.113281 68.769531-69.660156-23.222656h-206.398437l-46.441407 34.832031c-3.25 2.433594-5.160156 6.257813-5.160156 10.320313v27.507812c0 6.417969 4.71875 11.863281 11.074219 12.769531l34.078125 4.871094h212.847656l77.402344-.921875 27.625-3.949219c6.355469-.90625 11.074219-6.351562 11.074219-12.769531v-21.058593h-32.25zm0 0" fill="#ed1c24"/><path d="m371.730469 81.308594-37.617188-12.539063 14.191407 28.378907h32.25v-3.601563c0-5.550781-3.554688-10.484375-8.824219-12.238281zm0 0" fill="#f2f2f2"/><path d="m341.851562 135.847656c0 21.375-17.324218 38.699219-38.699218 38.699219-21.371094 0-38.699219-17.324219-38.699219-38.699219s17.328125-38.699218 38.699219-38.699218c21.375 0 38.699218 17.324218 38.699218 38.699218zm0 0" fill="#333"/><path d="m129.003906 135.847656c0 21.375-17.328125 38.699219-38.699218 38.699219-21.375 0-38.699219-17.324219-38.699219-38.699219s17.324219-38.699218 38.699219-38.699218c21.371093 0 38.699218 17.324218 38.699218 38.699218zm0 0" fill="#333"/><path d="m103.203125 135.847656c0 7.125-5.777344 12.898438-12.898437 12.898438-7.125 0-12.902344-5.773438-12.902344-12.898438s5.777344-12.898437 12.902344-12.898437c7.121093 0 12.898437 5.773437 12.898437 12.898437zm0 0" fill="#ccc"/><path d="m316.054688 135.847656c0 7.125-5.777344 12.898438-12.902344 12.898438s-12.898438-5.773438-12.898438-12.898438 5.773438-12.898437 12.898438-12.898437 12.902344 5.773437 12.902344 12.898437zm0 0" fill="#ccc"/><path d="m148.351562 45.546875-19.347656 25.800781 19.347656 64.5h116.101563l6.449219-64.5-6.449219-25.800781zm0 0" fill="#ff1d25"/><path d="m148.351562 71.347656h19.351563v12.902344h-19.351563zm0 0" fill="#4d4d4d"/><path d="m6.453125 77.796875h32.25v12.902344h-32.25zm0 0" fill="#fbb03b"/><path d="m.00390625 168.097656h386.99999975v12.898438h-386.99999975zm0 0" fill="#29485a"/><path d="m264.453125 45.546875-58.050781-38.699219h-25.800782l58.050782 38.699219zm0 0" fill="#06aae9"/><path d="m135.453125 13.296875c7.125 0 12.898437 5.777344 12.898437 12.902344v19.347656h-25.796874v-19.347656c-.003907-7.125 5.773437-12.902344 12.898437-12.902344zm0 0" fill="#754c24"/><path d="m109.652344 45.546875-6.449219-19.347656-45.148437 19.347656zm0 0" fill="#333"/><path d="m90.304688 116.5c-10.6875 0-19.351563 8.660156-19.351563 19.347656s8.664063 19.351563 19.351563 19.351563 19.347656-8.664063 19.347656-19.351563-8.664063-19.347656-19.347656-19.347656zm0 25.796875c-3.5625 0-6.453126-2.886719-6.453126-6.449219s2.886719-6.449218 6.453126-6.449218c3.5625 0 6.449218 2.886718 6.449218 6.449218s-2.886718 6.449219-6.449218 6.449219zm0 0"/><path d="m303.152344 116.5c-10.683594 0-19.347656 8.660156-19.347656 19.347656s8.660156 19.351563 19.347656 19.351563 19.351562-8.664063 19.351562-19.351563-8.664062-19.347656-19.351562-19.347656zm0 25.796875c-3.5625 0-6.449219-2.886719-6.449219-6.449219s2.886719-6.449218 6.449219-6.449218 6.453125 2.886718 6.453125 6.449218-2.890625 6.449219-6.453125 6.449219zm0 0"/><path d="m148.351562 71.347656h19.351563v12.902344h-19.351563zm0 0"/><path d="m387.003906 180.996094v-12.898438h-52.316406c7.535156-7.335937 12.265625-17.082031 13.363281-27.542968l22.335938-3.191407c9.511719-1.398437 16.574219-9.535156 16.617187-19.148437v-33.964844c0-2.882812-1.90625-5.414062-4.675781-6.207031l-5.664063-1.617188c-.929687-.488281-1.894531-.902343-2.890624-1.234375l-106.425782-35.476562-57.332031-38.222656c-1.070313-.714844-2.328125-1.097657-3.613281-1.09375h-25.800782c-3.5625-.003907-6.449218 2.886718-6.449218 6.445312 0 2.160156 1.074218 4.171875 2.871094 5.371094l40.34375 26.882812h-62.566407v-12.898437c0-10.6875-8.660156-19.351563-19.347656-19.351563s-19.351563 8.664063-19.351563 19.351563v12.898437h-1.800781l-4.976562-14.9375c-1.136719-3.378906-4.792969-5.195312-8.171875-4.058594-.167969.054688-.332032.117188-.492188.1875l-45.152344 19.351563c-.191406.109375-.378906.234375-.558593.367187-.265625.117188-.523438.25-.769531.398438l-46.441407 34.808594c-4.859375 3.664062-7.722656 9.394531-7.738281 15.480468v27.515626c.0429688 9.613281 7.101562 17.753906 16.613281 19.152343l28.929688 4.132813c1.273437 10.109375 5.933593 19.484375 13.222656 26.601562h-58.76171875v12.898438zm-265.167968-12.898438c7.089843-6.921875 11.691406-15.992187 13.101562-25.800781h123.582031c1.40625 9.808594 6.011719 18.878906 13.097657 25.800781zm29.742187-116.101562h107.835937l4.960938 19.824218-5.570312 55.714844c-.117188.613282-.195313 1.238282-.285157 1.863282h-105.367187l-17.054688-56.761719zm151.574219 116.101562c-17.746094 0-32.160156-14.339844-32.25-32.089844l.644531-6.773437c3.652344-17.429687 20.742187-28.601563 38.175781-24.953125 17.433594 3.652344 28.605469 20.742188 24.953125 38.175781-3.125 14.925781-16.273437 25.621094-31.523437 25.640625zm65.410156-43.503906-21.046875 3.003906c-4.511719-24.496094-28.027344-40.695312-52.519531-36.183594-7.566406 1.394532-14.648438 4.699219-20.578125 9.601563l2.933593-29.023437c.074219-.738282.019532-1.484376-.160156-2.203126l-3.597656-14.40625 56.003906 18.667969c0 .058594.03125.121094.058594.179688l12.902344 25.800781c1.085937 2.179688 3.308594 3.558594 5.746094 3.566406h25.796874v14.617188c0 3.207031-2.363281 5.925781-5.539062 6.378906zm4.792969-33.894531h-21.066407l-4.558593-9.121094 23.792969 6.792969c.789062.617187 1.414062 1.417968 1.832031 2.328125zm-171.46875-77.402344h2.582031l38.699219 25.800781h-2.582031zm-72.882813 12.902344c0-3.5625 2.886719-6.453125 6.449219-6.453125s6.449219 2.890625 6.449219 6.453125v12.898437h-12.898438zm-29.671875 8.695312 1.40625 4.203125h-11.261719zm-86.429687 83.320313v-27.515625h25.800781v-12.902344h-12.898437l34.394531-25.800781h75.253906l-11.609375 15.480468c-1.230469 1.636719-1.609375 3.761719-1.019531 5.722657l16.859375 56.199219h-4.746094c-3.527344-24.652344-26.367188-41.78125-51.019531-38.257813-19.503907 2.789063-34.941407 17.917969-38.121094 37.363281l-27.367187-3.910156c-3.171876-.457031-5.523438-3.175781-5.527344-6.378906zm45.152344 17.632812c0-17.8125 14.4375-32.25 32.25-32.25 17.808593 0 32.25 14.4375 32.25 32.25s-14.441407 32.25-32.25 32.25c-17.804688-.019531-32.230469-14.449218-32.25-32.25zm0 0"/></svg>