<svg height="512pt" viewBox="0 -53 512.00005 512" width="512pt" xmlns="http://www.w3.org/2000/svg"><path d="m504 253.621094c0 .460937 0 .921875-.011719 1.378906h-46.269531c.019531-.457031.019531-.917969.019531-1.378906.035157-26.078125-10.328125-51.097656-28.796875-69.507813l.070313-.070312.4375-.441407 32.210937-32.199218c27.152344 27.082031 42.390625 63.871094 42.339844 102.21875zm0 0" fill="#f4b844"/><path d="m457.71875 255h46.269531c-.300781 37.722656-15.386719 73.824219-42.019531 100.542969l-32.71875-32.722657c17.949219-18.042968 28.160156-42.371093 28.46875-67.820312zm0 0" fill="#fedb41"/><path d="m461.96875 355.542969c-27.109375 27.339843-64.035156 42.695312-102.539062 42.648437-.808594 0-1.621094-.007812-2.429688-.019531v-46.269531c.808594.019531 1.621094.03125 2.429688.03125 26.234374.035156 51.382812-10.449219 69.820312-29.113282zm0 0" fill="#f4b844"/><path d="m461.660156 151.402344-32.210937 32.199218-.4375.441407-.070313.070312c-18.417968-18.464843-43.433594-28.828125-69.511718-28.792969-.808594 0-1.621094.011719-2.429688.03125v-46.269531c.808594-.011719 1.621094-.019531 2.429688-.019531 38.351562-.050781 75.144531 15.1875 102.230468 42.339844zm0 0" fill="#fedb41"/><path d="m357 351.902344c-25.230469-.585938-49.261719-10.890625-67.078125-28.761719v-.007813c-18.128906-18.078124-28.453125-42.535156-28.773437-68.132812-.019532-.457031-.019532-.917969-.019532-1.378906.007813-53.339844 42.546875-96.945313 95.871094-98.269532.808594-.019531 1.621094-.03125 2.429688-.03125 54.292968.003907 98.304687 44.011719 98.308593 98.300782 0 .460937 0 .921875-.019531 1.378906-.753906 53.75-44.535156 96.925781-98.289062 96.933594-.808594 0-1.621094-.011719-2.429688-.03125zm55-95.199219c-.007812-7.214844-3.15625-14.066406-8.621094-18.769531-5.464844-4.707032-12.707031-6.804688-19.839844-5.742188.449219-1.875.671876-3.792968.671876-5.71875 0-13.6875-11.09375-24.78125-24.78125-24.78125-13.683594 0-24.78125 11.09375-24.78125 24.78125 0 1.925782.222656 3.84375.671874 5.71875-11.515624-1.738281-22.683593 4.773438-26.84375 15.648438-4.160156 10.875-.1875 23.179687 9.546876 29.570312 9.734374 6.386719 22.605468 5.136719 30.925781-3.007812.625.476562 1.183593 1.035156 1.660156 1.660156 1.878906 2.460938 2.75 6.097656 2.75 11.449219 0 9.910156-5.53125 17.96875-15.4375 17.96875-.070313 0-.132813.691406-.132813.761719 0 .070312.0625.757812.132813.757812h43.019531c.070313 0 .128906-.6875.128906-.757812 0-.070313-.058593-.441407-.128906-.441407-9.910156 0-15.441406-8.21875-15.441406-18.128906 0-5.351563.878906-9.070313 2.75-11.53125.476562-.636719 1.035156-1.207031 1.660156-1.699219 7.132813 6.964844 17.746094 8.976563 26.933594 5.105469 9.1875-3.875 15.160156-12.875 15.15625-22.84375zm0 0" fill="#00acea"/><path d="m387.21875 231.921875c11.183594 0 20.980469 7.484375 23.917969 18.273437 2.9375 10.785157-1.710938 22.207032-11.347657 27.875-9.636718 5.667969-21.878906 4.183594-29.878906-3.628906-.625.492188-1.183594 1.0625-1.660156 1.699219-1.871094 2.460937-2.75 6.179687-2.75 11.53125 0 9.910156 5.53125 18.128906 15.441406 18.128906.070313 0 .128906.371094.128906.441407 0 .070312-.058593.757812-.128906.757812h-43.019531c-.070313 0-.132813-.6875-.132813-.757812 0-.070313.0625-.761719.132813-.761719 9.90625 0 15.4375-8.058594 15.4375-17.96875 0-5.351563-.871094-8.988281-2.75-11.449219-.476563-.625-1.035156-1.183594-1.660156-1.660156-8.320313 8.109375-21.160157 9.339844-30.871094 2.957031s-13.671875-18.65625-9.53125-29.511719c4.144531-10.855468 15.28125-17.367187 26.773437-15.65625-.449218-1.875-.671874-3.792968-.671874-5.71875 0-13.6875 11.097656-24.78125 24.78125-24.78125 13.6875 0 24.78125 11.09375 24.78125 24.78125 0 1.925782-.222657 3.84375-.671876 5.71875 1.21875-.179687 2.449219-.269531 3.679688-.269531zm0 0" fill="#fedb41"/><path d="m357 398v.171875c-31.355469-.480469-61.695312-11.183594-86.410156-30.480469-4.695313-3.667968-9.164063-7.617187-13.378906-11.828125l.277343-.292969 32.433594-32.429687c17.816406 17.871094 41.847656 28.175781 67.078125 28.761719zm0 0" fill="#fedb41"/><path d="m338 110.640625c6.292969-.933594 12.640625-1.457031 19-1.558594v46.269531c-25.082031.582032-48.980469 10.769532-66.769531 28.460938l-.199219-.210938-32.511719-32.511718c21.820313-21.726563 50.023438-35.902344 80.480469-40.449219zm0 0" fill="#f4b844"/><path d="m338 67.8125v42.828125c-17.523438 2.601563-34.414062 8.421875-49.820312 17.171875h-230.179688v-60zm0 0" fill="#00acea"/><path d="m308 7.8125v60h-280v-60zm0 0" fill="#00efd1"/><path d="m230.671875 187.8125c6.960937-13.578125 16.023437-25.96875 26.847656-36.722656l32.511719 32.511718.199219.210938c-18.652344 18.4375-29.132813 43.582031-29.101563 69.808594 0 .460937 0 .921875.019532 1.378906h-46.277344c-.011719-.457031-.011719-.917969-.011719-1.378906 0-1.949219.039063-3.878906.121094-5.808594.800781-20.902344 6.15625-41.378906 15.691406-60zm0 0" fill="#fedb41"/><path d="m225.359375 307.8125c-6.785156-16.789062-10.34375-34.703125-10.488281-52.8125h46.277344c.320312 25.597656 10.644531 50.054688 28.773437 68.132812v.007813l-32.433594 32.429687-.277343.292969c-13.726563-13.722656-24.558594-30.0625-31.851563-48.050781zm0 0" fill="#f4b844"/><path d="m257.519531 151.089844c-10.824219 10.753906-19.886719 23.144531-26.847656 36.722656h-202.671875v-60h260.179688c-11.210938 6.359375-21.523438 14.1875-30.660157 23.277344zm0 0" fill="#00efd1"/><path d="m270.589844 367.691406-.089844.121094h-242.5v-60h197.359375c9.566406 23.578125 25.167969 44.230469 45.230469 59.878906zm0 0" fill="#00acea"/><path d="m28 187.8125h202.671875c-9.535156 18.621094-14.890625 39.097656-15.691406 60h-186.980469zm0 0" fill="#00acea"/><path d="m214.871094 255c.144531 18.109375 3.703125 36.023438 10.488281 52.8125h-217.359375v-60h206.980469c-.082031 1.929688-.121094 3.859375-.121094 5.808594 0 .460937 0 .921875.011719 1.378906zm0 0" fill="#00efd1"/><g fill="#083863"><path d="m467.316406 146c-28.492187-28.808594-67.367187-44.957031-107.886718-44.808594-.84375 0-1.6875-.054687-2.566407-.042968-3.636719.0625-7.265625.199218-10.863281.507812v-33.84375c-.007812-2.101562-.859375-4.113281-2.363281-5.582031-1.503907-1.46875-3.535157-2.273438-5.636719-2.230469h-22v-52.1875c-.007812-2.101562-.859375-4.113281-2.363281-5.582031-1.503907-1.46875-3.535157-2.2734378-5.636719-2.230469h-280c-2.101562-.0429688-4.132812.761719-5.636719 2.230469-1.503906 1.46875-2.355469 3.480469-2.363281 5.582031v60c-.015625 4.453125 3.546875 8.101562 8 8.1875h22v44h-22c-2.101562-.042969-4.132812.761719-5.636719 2.230469-1.503906 1.46875-2.355469 3.480469-2.363281 5.582031v112.1875h-12c-2.101562-.042969-4.132812.761719-5.636719 2.230469-1.503906 1.46875-2.3554685 3.480469-2.363281 5.582031v60c-.015625 4.453125 3.546875 8.101562 8 8.1875h12v51.8125c-.015625 4.453125 3.546875 8.101562 8 8.1875h240.042969c25.730469 19.125 56.804687 29.707031 88.855469 30.265625.84375.011719 1.691406-.027344 2.535156-.027344 83.664062-.011719 151.714844-67.394531 152.554687-151.054687.011719-.515625.011719-.910156.011719-1.429688 0-40.753906-15.867188-78.753906-44.683594-107.753906zm-1.785156 101c-1.371094-23.125-10.328125-45.15625-25.484375-62.679688l21.445313-21.4375c20.792968 23.246094 32.925781 52.960938 34.347656 84.117188zm-100.53125 112.785156c23.652344-1.160156 46.222656-10.261718 64.066406-25.832031l21.4375 21.4375c-23.5625 21.210937-53.820312 33.484375-85.503906 34.679687zm58.566406-42.597656c-16.914062 17.171875-40.03125 26.8125-64.136718 26.738281-.742188 0-1.488282-.007812-2.238282-.027343-23.175781-.527344-45.253906-9.992188-61.613281-26.417969l-5.101563 5.097656 5.109376-5.105469c-16.667969-16.59375-26.160157-39.0625-26.429688-62.582031 0-.082031 0-.164063-.007812-.246094-.015626-.34375-.011719-.683593-.011719-1.023437.007812-49 39.082031-89.050782 88.0625-90.269532.746093-.019531 1.488281-.03125 2.234375-.03125 49.871094 0 90.300781 40.429688 90.308594 90.300782 0 .339844 0 .683594-.011719 1.023437 0 .085938-.007813.167969-.007813.25-.265625 23.382813-9.652344 45.734375-26.15625 62.296875zm-166.191406 27.179688c-20.132812-22.558594-32.164062-51.195313-34.1875-81.367188h30.359375c1.902344 22.140625 10.746094 43.113281 25.273437 59.925781zm-19.585938-152.90625c5.363282-10.445313 12.050782-20.15625 19.894532-28.890626l21.421875 21.421876c-15.328125 17.570312-24.390625 39.734374-25.765625 63.007812h-30.304688c.875-19.355469 5.90625-38.300781 14.753906-55.539062zm101.398438-72.90625c3.222656-.484376 6.507812-.839844 9.816406-1.085938v30.359375c-21.605468 2.089844-42.039062 10.785156-58.527344 24.902344l-21.445312-21.445313c7.105469-6.292968 14.847656-11.824218 23.097656-16.511718 14.546875-8.273438 30.5-13.773438 47.054688-16.21875zm89.550781 54.453124c-17.800781-15.390624-40.238281-24.382812-63.738281-25.542968v-30.28125c31.53125 1.191406 61.65625 13.355468 85.175781 34.386718zm-392.738281-157.007812h264v44h-264zm30 60h264v27.902344c-15.425781 2.867187-30.261719 8.308594-43.882812 16.097656h-220.117188zm196.507812 60c-3.683593 3-7.234374 6.234375-10.625 9.601562-10.335937 10.105469-19.09375 21.699219-25.992187 34.398438h-189.890625v-44zm-226.507812 60h182.191406c-5.746094 14.050781-9.351562 28.882812-10.703125 44h-171.488281zm-20 104v-44h190.886719c.179687 14.9375 2.574219 29.765625 7.097656 44zm20 16h184.082031c7.371094 16.25 17.449219 31.128906 29.808594 44h-213.890625zm232.6875 39.6875 21.445312-21.445312c16.542969 14.285156 37.113282 23.082031 58.867188 25.183593v30.347657c-26.769531-1.957032-52.351562-11.839844-73.484375-28.386719-2.332031-1.820313-4.617187-3.730469-6.828125-5.699219zm193.101562-11.648438-21.453124-21.449218c14.359374-16.757813 23.101562-37.601563 24.988281-59.589844h30.347656c-1.984375 30.027344-13.910156 58.539062-33.890625 81.039062zm0 0"/><path d="m392.136719 224.289062c-1.144531-17.21875-15.449219-30.601562-32.707031-30.601562-17.257813 0-31.558594 13.382812-32.707032 30.601562-12.664062 1.929688-23.042968 11.058594-26.574218 23.371094s.4375 25.554688 10.152343 33.898438c9.71875 8.34375 23.40625 10.265625 35.046875 4.917968.007813.324219.011719.671876.011719 1.035157 0 2.339843-.535156 9.96875-7.4375 9.96875-3.941406 0-8.132813 3.070312-8.132813 8.761719 0 5.691406 4.191407 8.757812 8.132813 8.757812h43.019531c3.941406 0 8.128906-3.066406 8.128906-8.757812.0625-2.203126-.761718-4.339844-2.292968-5.929688-1.527344-1.589844-3.632813-2.492188-5.835938-2.511719-6.902344 0-7.441406-7.753906-7.441406-10.128906 0-.414063.007812-.800781.019531-1.164063 11.644531 5.347657 25.335938 3.425782 35.058594-4.925781 9.71875-8.351562 13.683594-21.597656 10.148437-33.917969-3.53125-12.316406-13.917968-21.449218-26.589843-23.375zm-32.949219 74.710938c.070312-.164062.132812-.328125.203125-.5.058594.167969.125.332031.1875.5zm28.03125-25.507812c-4.378906.011718-8.589844-1.703126-11.714844-4.769532-2.839844-2.777344-7.285156-3.050781-10.441406-.644531-1.199219.925781-2.269531 2.011719-3.179688 3.222656-1 1.316407-1.816406 2.761719-2.433593 4.300781-.621094-1.574218-1.457031-3.050781-2.476563-4.394531-.914062-1.195312-1.980468-2.261719-3.171875-3.171875-3.160156-2.40625-7.605469-2.132812-10.445312.644532-5.410157 5.292968-13.695313 6.304687-20.222657 2.46875-6.523437-3.832032-9.671874-11.5625-7.683593-18.867188 1.988281-7.300781 8.621093-12.367188 16.191406-12.363281.832031 0 1.667969.058593 2.492187.183593 2.628907.394532 5.285157-.546874 7.082032-2.503906 1.796875-1.960937 2.503906-4.683594 1.886718-7.269531-.300781-1.265625-.453124-2.558594-.453124-3.859375 0-9.265625 7.515624-16.78125 16.78125-16.78125 9.269531 0 16.78125 7.515625 16.78125 16.78125 0 1.300781-.148438 2.59375-.449219 3.859375-.621094 2.585937.085937 5.308594 1.882812 7.269531 1.800781 1.957032 4.453125 2.898438 7.082031 2.503906 6.226563-.933593 12.449219 1.695313 16.121094 6.808594 3.671875 5.113282 4.175782 11.851563 1.304688 17.449219-2.875 5.601563-8.636719 9.125-14.933594 9.128906zm0 0"/></g></svg>