<svg height="481pt" viewBox="0 0 481.07575 481" width="481pt" xmlns="http://www.w3.org/2000/svg"><path d="m444.957031 460.171875-135.765625-48 25.753906-24.835937 105.59375 37.332031zm0 0" fill="#1e81ce"/><path d="m428.578125 386.496094-60.339844-21.332032c-8.332031-2.945312-17.472656 1.421876-20.417969 9.75l-5.335937 15.085938 90.511719 32 5.332031-15.085938c2.945313-8.328124-1.417969-17.472656-9.75-20.417968zm0 0" fill="#39a0e5"/><path d="m410.90625 244.484375c4.554688 17.988281 2.21875 37.027344-6.554688 53.378906l-36.113281 67.300781 60.339844 21.332032 14.214844-75.042969c3.453125-18.230469 13.601562-34.511719 28.449219-45.636719zm0 0" fill="#1e81ce"/><path d="m473.074219 232.523438c0 13.253906-10.746094 24-24 24-13.253907 0-24-10.746094-24-24 0-13.253907 10.746093-24 24-24 13.253906 0 24 10.746093 24 24zm0 0" fill="#1e81ce"/><path d="m36.121094 460.171875 135.761718-48-25.75-24.835937-105.59375 37.332031zm0 0" fill="#ffd422"/><path d="m52.5 386.496094 60.339844-21.332032c8.328125-2.945312 17.472656 1.421876 20.417968 9.75l5.332032 15.085938-90.511719 32-5.332031-15.085938c-2.945313-8.328124 1.421875-17.472656 9.753906-20.417968zm0 0" fill="#efc30c"/><path d="m70.171875 244.484375c-4.558594 17.988281-2.21875 37.027344 6.554687 53.378906l36.113282 67.300781-60.339844 21.332032-14.214844-75.042969c-3.453125-18.230469-13.601562-34.511719-28.453125-45.636719zm0 0" fill="#e7b900"/><path d="m56 232.523438c0 13.253906-10.742188 24-24 24-13.253906 0-24-10.746094-24-24 0-13.253907 10.746094-24 24-24 13.257812 0 24 10.746093 24 24zm0 0" fill="#efc30c"/><path d="m.539062 464.039062h480v16h-480zm0 0" fill="#6dc82a"/><path d="m320.539062 368.039062h-160l16-32h128zm0 0" fill="#b30222"/><path d="m280.539062 304.039062h-80c-8.835937 0-16 7.164063-16 16v16h112v-16c0-8.835937-7.164062-16-16-16zm0 0" fill="#e20736"/><path d="m192.539062 304.039062v-.847656c0-25.992187 4.609376-51.871094-2.089843-76.984375l-5.292969-19.847656c-9.796875-36.734375 6.375-75.460937 39.382812-94.320313l16 16 40-16-16 40 39.929688 46.585938c4.554688 5.3125 4.25 13.234375-.699219 18.179688-4.269531 4.269531-10.867187 5.15625-16.113281 2.160156l-47.117188-26.925782 20.574219 37.03125c12.738281 22.933594 27.425781 48.734376 27.425781 74.96875zm0 0" fill="#e20736"/><path d="m256.539062 40.039062v32c0 8.835938-7.164062 16-16 16-8.835937 0-16-7.164062-16-16v-16l-16-16h-48v32h16c4.398438 0 8.398438 1.757813 11.277344 4.71875 2.960938 2.878907 4.722656 6.878907 4.722656 11.28125v16h-48l-24-24h-32v-72h136zm0 0" fill="#ffb398"/><path d="m8.539062 8.039062h80v72h-80zm0 0" fill="#29485a"/><path d="m207.296875 207.746094c-11.132813-24.953125-5.605469-56.066406 13.445313-75.660156l11.46875 11.15625c-14.367188 14.777343-18.699219 39.164062-10.304688 57.988281zm0 0" fill="#fff"/><path d="m213.859375 224.457031 14.953125-5.691406 5.386719 14.148437-14.953125 5.691407zm0 0" fill="#fff"/><path d="m452.894531 459.183594-4.417969-35.503906c-.371093-3.007813-2.414062-5.542969-5.269531-6.554688l2.667969-7.539062c2.136719-6.046876 1.792969-12.5625-.972656-18.34375-1.714844-3.589844-4.300782-6.539063-7.40625-8.84375l13.15625-69.457032c3.089844-16.308594 12.105468-30.769531 25.390625-40.71875 2.359375-1.769531 3.558593-4.691406 3.113281-7.609375s-2.460938-5.351562-5.242188-6.335937l-4.175781-1.476563c4.257813-3.613281 7.597657-8.207031 9.507813-13.609375 5.878906-16.636718-2.871094-34.953125-19.503906-40.835937-16.632813-5.882813-34.953126 2.867187-40.835938 19.503906-1.953125 5.515625-2.160156 11.191406-1.136719 16.5625l-4.195312-1.480469c-2.777344-.988281-5.878907-.355468-8.058594 1.632813s-3.089844 5.015625-2.363281 7.875c4.074218 16.085937 2 33.003906-5.851563 47.632812l-33.425781 62.289063c-3.863281-.160156-7.730469.507812-11.3125 2.222656-5.785156 2.761719-10.148438 7.613281-12.285156 13.660156l-2.664063 7.539063c-2.859375-1.019531-6.042969-.320313-8.222656 1.785156l-25.753906 24.835937c-1.996094 1.925782-2.851563 4.746094-2.261719 7.453126.585938 2.710937 2.535156 4.921874 5.148438 5.847656l125.367187 44.324218h-382.707031l125.371094-44.324218c2.613281-.925782 4.5625-3.136719 5.148437-5.847656.589844-2.707032-.265625-5.527344-2.261719-7.453126l-25.753906-24.835937c-2.1875-2.109375-5.378906-2.804687-8.222656-1.785156l-2.664063-7.542969c-2.136719-6.042969-6.5-10.894531-12.285156-13.65625-3.589844-1.71875-7.453125-2.390625-11.316406-2.226562l-33.421875-62.285157c-7.851563-14.628906-9.925782-31.546875-5.851563-47.632812.726563-2.859375-.183593-5.886719-2.363281-7.875-2.175781-1.992188-5.269531-2.613281-8.058594-1.632813l-4.195312 1.484375c1.019531-5.375.8125-11.050781-1.136719-16.570312-5.878906-16.628907-24.179687-25.367188-40.835937-19.5-16.632813 5.882812-25.382813 24.199219-19.503907 40.835937v-.003906c1.910157 5.40625 5.246094 10 9.503907 13.613281l-4.171876 1.476563c-2.78125.984375-4.796874 3.417968-5.242187 6.335937s.753906 5.839844 3.113281 7.609375c13.285156 9.949219 22.300782 24.410156 25.390625 40.71875l13.15625 69.457032c-3.105469 2.304687-5.695312 5.253906-7.40625 8.84375-2.765625 5.78125-3.109375 12.296874-.972656 18.34375l2.664063 7.539062c-2.851563 1.011719-4.894532 3.546875-5.265626 6.554688l-4.417968 35.503906c-.214844 1.710937.191406 3.390625 1.003906 4.855468h-28.648438v16h480v-16h-28.652343c.816406-1.464843 1.222656-3.144531 1.007812-4.855468zm-18.902343-231.992188c2.320312-6.558594 8.503906-10.667968 15.097656-10.667968 1.765625 0 3.558594.296874 5.316406.917968 4.03125 1.425782 7.265625 4.332032 9.105469 8.1875 1.84375 3.855469 2.074219 8.199219.648437 12.226563v.003906c-1.425781 4.027344-4.332031 7.261719-8.191406 9.105469-3.851562 1.835937-8.195312 2.070312-12.222656.644531l-.011719-.003906c-8.3125-2.945313-12.683594-12.101563-9.742187-20.414063zm-22.589844 74.453125c7.484375-13.949219 10.738281-29.574219 9.550781-45.121093l17.445313 6.167968c.003906 0 .003906 0 .007812.003906h.007812l17.449219 6.171876c-10.695312 11.347656-17.984375 25.546874-20.929687 41.097656l-12.480469 65.882812-5.074219-1.796875-37.683594-13.324219zm-51.945313 71.386719c1.925781-.929688 4.097657-1.039062 6.113281-.324219l60.339844 21.335938c2.015625.710937 3.632813 2.167969 4.554688 4.09375.921875 1.929687 1.035156 4.101562.324218 6.113281l-2.667968 7.539062-75.425782-26.664062 2.667969-7.539062c.710938-2.015626 2.167969-3.632813 4.09375-4.554688zm-22.515625 23.496094 2.871094 1.015625c.003906 0 .003906 0 .007812.003906l90.507813 32c.003906 0 .011719 0 .019531.003906l2.863282 1.011719 2.207031 17.753906-111.355469-39.371094zm-179.925781 12.417968-111.355469 39.371094 2.207032-17.753906 2.863281-1.011719c.003906-.003906.011719-.003906.019531-.003906l90.507812-32c0-.003906.003907-.003906.003907-.003906l2.875-1.015625zm-31.300781-31.363281 2.664062 7.542969-75.425781 26.664062-2.664063-7.539062c-.710937-2.011719-.597656-4.183594.324219-6.113281.921875-1.925781 2.539063-3.382813 4.554688-4.09375l60.339843-21.335938c.871094-.308593 1.773438-.460937 2.671876-.460937 1.175781 0 2.347656.261718 3.441406.785156 1.925781.921875 3.382812 2.539062 4.09375 4.550781zm-100.605469-130.617187c-3.859375-1.84375-6.765625-5.078125-8.191406-9.105469 0-.003906 0-.003906 0-.003906-1.425781-4.027344-1.195313-8.371094.648437-12.226563 1.839844-3.855468 5.074219-6.761718 9.105469-8.1875 1.757813-.621094 3.550781-.917968 5.316406-.917968 6.59375 0 12.78125 4.109374 15.097657 10.664062 2.9375 8.316406-1.433594 17.472656-9.746094 20.417969l-.011719.003906c-4.023437 1.425781-8.371094 1.191406-12.21875-.644531zm.105469 21.902344 17.449218-6.171876h.007813c0-.003906.003906-.003906.003906-.003906l17.449219-6.167968c-1.1875 15.546874 2.066406 31.171874 9.550781 45.121093l31.707031 59.082031-37.683593 13.324219-5.074219 1.796875-12.480469-65.882812c-2.945312-15.550782-10.234375-29.75-20.929687-41.097656zm0 0"/><path d="m230.195312 106.382812c-2.542968-2.546874-6.492187-3.082031-9.625-1.289062-36.117187 20.640625-53.859374 63.128906-43.144531 103.328125l5.292969 19.847656c4.429688 16.601563 3.542969 33.746094 2.609375 51.902344-.375 7.203125-.738281 14.644531-.769531 22.09375-4.886719 4.394531-8.019532 10.699219-8.019532 17.773437v8c-3.03125 0-5.800781 1.710938-7.15625 4.421876l-16 32c-1.238281 2.480468-1.105468 5.425781.351563 7.785156 1.457031 2.355468 4.03125 3.792968 6.804687 3.792968h160c2.773438 0 5.347657-1.4375 6.804688-3.792968 1.457031-2.359375 1.589844-5.304688.351562-7.785156l-16-32c-1.355468-2.710938-4.125-4.421876-7.15625-4.421876v-8c0-7.121093-3.179687-13.457031-8.117187-17.855468-.636719-27.019532-14.8125-52.699219-27.429687-75.402344l-7.546876-13.582031 22.246094 12.710937c8.351563 4.777344 18.933594 3.359375 25.734375-3.445312 7.855469-7.855469 8.347657-20.613282 1.117188-29.046875l-36.777344-42.90625 14.203125-35.5c1.1875-2.972657.488281-6.367188-1.773438-8.628907-2.261718-2.265624-5.65625-2.949218-8.628906-1.773437l-35.101562 14.042969zm77.398438 253.65625h-134.109375l8-16h118.109375zm-115.054688-32v-8c0-4.410156 3.589844-8 8-8h80c4.410157 0 8 3.589844 8 8v8zm73.640626-201.640624-9.070313 22.667968c-1.105469 2.765625-.582031 5.917969 1.355469 8.179688l39.929687 46.585937c1.824219 2.125 1.699219 5.339844-.28125 7.320313-1.707031 1.710937-4.371093 2.082031-6.484375.867187l-47.121094-26.925781c-3.113281-1.789062-7.042968-1.269531-9.589843 1.253906-2.554688 2.523438-3.117188 6.4375-1.371094 9.578125l21.460937 38.628907c10.617188 19.101562 22.488282 40.460937 25.035157 61.484374h-79.394531c.140624-5.035156.402343-10.097656.65625-15.042968.960937-18.59375 1.953124-37.816406-3.125-56.851563l-5.292969-19.847656c-8.324219-31.222656 4.152343-64.128906 30.492187-82.105469l11.503906 11.503906c2.261719 2.269532 5.660157 2.957032 8.628907 1.773438zm0 0"/><path d="m8.539062 88.039062h108.6875l21.65625 21.65625c1.5 1.5 3.535157 2.34375 5.65625 2.34375h48c4.417969 0 8-3.582031 8-8v-16c0-6.488281-2.535156-12.53125-6.988281-16.863281-4.480469-4.601562-10.523437-7.136719-17.011719-7.136719h-8v-16h36.6875l11.3125 11.3125v12.6875c0 13.234376 10.765626 24 24 24 13.234376 0 24-10.765624 24-24v-32c0-2.121093-.84375-4.15625-2.34375-5.65625l-32-32c-1.5-1.5-3.535156-2.3437495-5.65625-2.3437495h-216c-4.417968 0-8 3.5820315-8 7.9999995v72c0 4.417969 3.582032 8 8 8zm240-44.6875v28.6875c0 4.410157-3.589843 8-8 8-4.410156 0-8-3.589843-8-8v-16c0-2.121093-.84375-4.15625-2.34375-5.65625l-16-16c-1.5-1.5-3.535156-2.34375-5.65625-2.34375h-48c-4.417968 0-8 3.582032-8 8v32c0 4.417969 3.582032 8 8 8h16c2.136719 0 4.105469.816407 5.699219 2.449219 1.484375 1.445313 2.300781 3.414063 2.300781 5.550781v8h-36.6875l-21.65625-21.65625c-1.5-1.5-3.535156-2.34375-5.65625-2.34375h-24v-56h124.6875zm-232-27.3125h64v56h-64zm0 0"/></svg>