<?xml version="1.0" encoding="iso-8859-1"?>
<!-- Generator: Adobe Illustrator 22.1.0, SVG Export Plug-In . SVG Version: 6.00 Build 0)  -->
<svg xmlns="http://www.w3.org/2000/svg" xmlns:xlink="http://www.w3.org/1999/xlink" version="1.1" id="Layer_1_1_" x="0px" y="0px" viewBox="0 0 64 64" style="enable-background:new 0 0 64 64;" xml:space="preserve" width="512" height="512">
<linearGradient id="SVGID_1_" gradientUnits="userSpaceOnUse" x1="32" y1="63" x2="32" y2="1">
	<stop offset="0" style="stop-color:#9F2FFF"/>
	<stop offset="1" style="stop-color:#0BB1D3"/>
</linearGradient>
<path style="fill:url(#SVGID_1_);" d="M56.447,19.895l-0.895-1.789l4-2l0.895,1.789L56.447,19.895z M59.553,31.895l0.895-1.789l-4-2  l-0.895,1.789L59.553,31.895z M63,23h-6v2h6V23z M1,60.211V54c0-1.536,1.164-2.791,2.653-2.965C2.017,49.529,1,47.369,1,45V28.313  c0-2.404,0.936-4.664,2.636-6.364l1.664-1.664C5.113,19.894,5,19.462,5,19v-5v-0.768V9.5C5,4.813,8.813,1,13.5,1  c4.556,0,8.276,3.606,8.48,8.113C23.153,9.436,24,10.479,24,11.726c0,1.204-0.773,2.25-1.924,2.605L22,14.354v1.484l1,3V19h12v2h11  h1h8v6h-8v1h-4.424c-0.774,1.763-2.531,3-4.576,3h-0.723l-6.755,4.053C33.031,35.318,35,37.422,35,40v16.323l3.247,1.299  C39.312,58.047,40,59.064,40,60.211C40,61.749,38.749,63,37.211,63H26v-0.053C25.827,62.968,25.658,63,25.48,63  c-0.41,0-0.818-0.056-1.211-0.165L7.596,58.203l-1.217,3.044C5.953,62.312,4.936,63,3.789,63C2.251,63,1,61.749,1,60.211z   M26,51.963v-7.034c-1.436,0.679-2.993,1.248-4.597,1.671L26,51.963z M37.504,59.479L33.808,58h-3.835  C29.98,58.101,30,58.2,30,58.302v0.178c0,0.932-0.284,1.799-0.77,2.52h7.981C37.646,61,38,60.646,38,60.211  C38,59.887,37.806,59.599,37.504,59.479z M30,37H18.021l-0.863,1.233C18.238,38.687,19,39.756,19,41  c0,0.744-0.282,1.417-0.732,1.942l1.674,1.953c3.186-0.707,6.246-2.035,8.459-3.695l1.2,1.6c-0.495,0.371-1.037,0.722-1.6,1.061  v10.436l0.912,1.064c0.172,0.2,0.323,0.415,0.456,0.64H33V40C33,38.346,31.654,37,30,37z M3,45h3v-5H3V45z M8,42h4.521H16  c0.551,0,1-0.449,1-1s-0.449-1-1-1h-0.08l-0.253,0.361C14.95,41.387,13.773,42,12.521,42c-1.287,0-2.482-0.64-3.196-1.71L9.132,40H8  V42z M18.685,25.831L17.465,24H12c-0.551,0-1,0.449-1,1v2.667l2.248,2.997L18.685,25.831z M6.715,21.699l-1.516,1.516  C6.61,23.538,7.889,24.236,9,25.274V25c0-0.752,0.287-1.431,0.746-1.958c-0.264-0.393-0.444-0.829-0.569-1.283  C8.815,21.913,8.418,22,8,22C7.538,22,7.106,21.887,6.715,21.699z M19.339,27.925l1.967,1.967l1.749-0.437  C23.612,29.316,24,28.819,24,28.246C24,27.559,23.441,27,22.754,27H20.38L19.339,27.925z M26,28.246  c0,1.492-1.011,2.788-2.459,3.149l-1.936,0.484l-0.056,0.079l3.203,2.562c0.696,0.557,1.728,0.625,2.49,0.167l8.344-5.006L34.465,28  h-0.504l-5.956,3.84l-1.084-1.681L30.27,28h-4.295C25.982,28.083,26,28.162,26,28.246z M19.421,35h2.729L20.4,33.601L19.421,35z   M40.22,28h-3.351l0.667,1H38C38.883,29,39.67,28.609,40.22,28z M41,26v-3h-2v3H41z M47,23v2h6v-2H47z M45,23h-2v3h2V23z M35,23v3h2  v-3H35z M33,21H20.535l-1.333,2l1.333,2h2.219c0.917,0,1.743,0.386,2.334,1H32h1V21z M20,16.162v-1.193l-9,2.769V19v1.586  c0,0.53,0.188,1.045,0.508,1.464C11.669,22.023,11.832,22,12,22h5.465l2-3h1.481L20,16.162z M22,11.726  c0-0.4-0.326-0.726-0.726-0.726c-0.111,0-0.174,0.008-0.236,0.024L7,14.768V19c0,0.551,0.449,1,1,1s1-0.449,1-1v-2.739l12.488-3.842  C21.794,12.325,22,12.046,22,11.726z M7,12.699l12.987-3.463C19.846,5.774,16.995,3,13.5,3C9.916,3,7,5.916,7,9.5V12.699z M3,28.313  V38h4.798l-3.63-5.445l1.664-1.109l5.157,7.735c0.342,0.513,0.915,0.82,1.532,0.82c0.601,0,1.165-0.293,1.508-0.785l5.671-8.101  l-1.858-1.858l-6.178,5.491l-1.329-1.495l1.413-1.256L8.6,27.8c-1.279-1.706-2.889-2.63-4.785-2.771C3.283,26.028,3,27.149,3,28.313  z M7.757,51H8v0.067c0.028,0.006,0.054,0.017,0.082,0.023l12.153,2.938l-0.471,1.944L8,53.126v3.114l16.805,4.668  C25.024,60.969,25.251,61,25.48,61c1.39,0,2.52-1.13,2.52-2.52v-0.178c0-0.601-0.215-1.184-0.607-1.64L16.497,43.95  C16.334,43.977,16.17,44,16,44H8v1c0,1.103-0.897,2-2,2H3.342C4.016,48.97,5.658,50.499,7.757,51z M3,60.211  C3,60.646,3.354,61,3.789,61c0.324,0,0.612-0.194,0.732-0.496L6,56.808V53H4c-0.551,0-1,0.449-1,1V60.211z"/>
</svg>
