<svg height="512pt" viewBox="-76 0 512 512" width="512pt" xmlns="http://www.w3.org/2000/svg"><path d="m350.261719 512h-339.960938c-5.6875 0-10.300781-4.613281-10.300781-10.300781v-491.398438c0-5.6875 4.613281-10.300781 10.300781-10.300781h339.960938c5.691406 0 10.300781 4.613281 10.300781 10.300781v491.398438c0 5.6875-4.613281 10.300781-10.300781 10.300781zm0 0" fill="#92dd79"/><path d="m41.207031 501.699219v-491.398438c0-5.6875 4.613281-10.300781 10.304688-10.300781h-41.210938c-5.6875 0-10.300781 4.613281-10.300781 10.300781v491.398438c0 5.6875 4.613281 10.300781 10.300781 10.300781h41.207031c-5.6875 0-10.300781-4.613281-10.300781-10.300781zm0 0" fill="#7ec66a"/><path d="m41.207031 250.847656v-204.488281c0-2.847656 2.308594-5.152344 5.152344-5.152344h267.847656c2.84375 0 5.148438 2.304688 5.148438 5.152344v204.488281c0 2.847656-2.304688 5.152344-5.148438 5.152344h-267.847656c-2.84375 0-5.152344-2.304688-5.152344-5.152344zm0 0" fill="#fefefe"/><path d="m180.28125 169.53125c-9.785156 0-17.71875-7.929688-17.71875-17.714844v-10.226562c0-1.691406 1.371094-3.0625 3.066406-3.0625h29.308594c1.691406 0 3.0625 1.371094 3.0625 3.0625v10.226562c0 9.785156-7.933594 17.714844-17.71875 17.714844zm0 0" fill="#2d2d30"/><path d="m82.414062 250.847656v-204.488281c0-2.847656 2.308594-5.152344 5.152344-5.152344h-41.207031c-2.84375 0-5.152344 2.304688-5.152344 5.152344v204.488281c0 2.847656 2.308594 5.152344 5.152344 5.152344h41.207031c-2.84375 0-5.152344-2.304688-5.152344-5.152344zm0 0" fill="#d1e7f8"/><path d="m160.214844 361.90625h-35.058594v-35.054688c0-2.601562-2.105469-4.707031-4.707031-4.707031h-34.769531c-2.601563 0-4.707032 2.105469-4.707032 4.707031v35.054688h-35.058594c-2.597656 0-4.707031 2.109375-4.707031 4.707031v34.773438c0 2.597656 2.109375 4.707031 4.707031 4.707031h35.058594v35.054688c0 2.601562 2.105469 4.707031 4.707032 4.707031h34.769531c2.601562 0 4.707031-2.105469 4.707031-4.707031v-35.054688h35.058594c2.601562 0 4.707031-2.109375 4.707031-4.707031v-34.773438c0-2.597656-2.105469-4.707031-4.707031-4.707031zm0 0" fill="#57565c"/><path d="m266.796875 350.472656c0 15.648438-12.6875 28.332032-28.332031 28.332032-15.644532 0-28.328125-12.683594-28.328125-28.332032 0-15.644531 12.683593-28.328125 28.328125-28.328125 15.644531 0 28.332031 12.683594 28.332031 28.328125zm0 0" fill="#f55"/><path d="m230.738281 350.472656c0-12.007812 7.480469-22.269531 18.027344-26.390625-3.191406-1.246093-6.664063-1.9375-10.300781-1.9375-15.644532 0-28.328125 12.683594-28.328125 28.328125 0 15.644532 12.683593 28.332032 28.328125 28.332032 3.636718 0 7.109375-.695313 10.300781-1.941407-10.550781-4.125-18.027344-14.378906-18.027344-26.390625zm0 0" fill="#e04141"/><path d="m319.355469 417.527344c0 15.644531-12.683594 28.328125-28.328125 28.328125-15.648438 0-28.332032-12.683594-28.332032-28.328125 0-15.648438 12.683594-28.332032 28.332032-28.332032 15.644531 0 28.328125 12.683594 28.328125 28.332032zm0 0" fill="#4db5a6"/><path d="m283.300781 417.527344c0-12.011719 7.476563-22.269532 18.027344-26.390625-3.195313-1.246094-6.667969-1.941407-10.300781-1.941407-15.648438 0-28.332032 12.6875-28.332032 28.332032 0 15.644531 12.683594 28.328125 28.332032 28.328125 3.632812 0 7.105468-.691407 10.300781-1.9375-10.550781-4.121094-18.027344-14.378907-18.027344-26.390625zm0 0" fill="#3da094"/><path d="m103.066406 322.144531h-17.386718c-2.601563 0-4.707032 2.105469-4.707032 4.707031v35.054688h-35.058594c-2.597656 0-4.707031 2.109375-4.707031 4.707031v34.773438c0 2.597656 2.109375 4.707031 4.707031 4.707031h35.058594v35.054688c0 2.601562 2.105469 4.707031 4.707032 4.707031h17.386718zm0 0" fill="#3e3d42"/><path d="m245.894531 146.871094c-4.140625 0-7.5-3.355469-7.5-7.5v-11.695313c0-4.144531 3.359375-7.5 7.5-7.5s7.5 3.355469 7.5 7.5v11.695313c0 4.144531-3.359375 7.5-7.5 7.5zm0 0" fill="#1d1d1f"/><path d="m114.671875 146.871094c-4.144531 0-7.5-3.355469-7.5-7.5v-11.695313c0-4.144531 3.355469-7.5 7.5-7.5 4.140625 0 7.5 3.355469 7.5 7.5v11.695313c0 4.144531-3.359375 7.5-7.5 7.5zm0 0" fill="#1d1d1f"/><g fill="#f55"><path d="m251.742188 168.984375h-11.695313c-4.144531 0-7.5-3.355469-7.5-7.5 0-4.140625 3.355469-7.5 7.5-7.5h11.695313c4.144531 0 7.5 3.359375 7.5 7.5 0 4.144531-3.355469 7.5-7.5 7.5zm0 0"/><path d="m120.519531 168.984375h-11.699219c-4.140624 0-7.5-3.355469-7.5-7.5 0-4.140625 3.359376-7.5 7.5-7.5h11.699219c4.140625 0 7.5 3.359375 7.5 7.5 0 4.144531-3.359375 7.5-7.5 7.5zm0 0"/></g></svg>