<?xml version="1.0" encoding="iso-8859-1"?>
<!-- Generator: Adobe Illustrator 19.0.0, SVG Export Plug-In . SVG Version: 6.00 Build 0)  -->
<svg version="1.1" id="Layer_1" xmlns="http://www.w3.org/2000/svg" xmlns:xlink="http://www.w3.org/1999/xlink" x="0px" y="0px"
	 viewBox="0 0 512.001 512.001" style="enable-background:new 0 0 512.001 512.001;" xml:space="preserve">
<g>
	<rect x="116.41" y="318.039" style="fill:#297FA9;" width="54.285" height="31.02"/>
	<rect x="46.614" y="318.039" style="fill:#297FA9;" width="54.285" height="31.02"/>
	<rect x="38.862" y="349.062" style="fill:#297FA9;" width="279.187" height="155.105"/>
</g>
<rect x="38.862" y="349.062" style="fill:#86CBED;" width="186.118" height="155.105"/>
<g>
	<rect x="116.41" y="7.839" style="fill:#297FA9;" width="54.285" height="31.02"/>
	<rect x="46.614" y="7.839" style="fill:#297FA9;" width="54.285" height="31.02"/>
	<rect x="256.003" y="7.839" style="fill:#297FA9;" width="54.285" height="31.02"/>
	<rect x="186.201" y="7.839" style="fill:#297FA9;" width="54.285" height="31.02"/>
	<rect x="38.862" y="38.862" style="fill:#297FA9;" width="279.187" height="155.105"/>
</g>
<rect x="38.862" y="38.862" style="fill:#86CBED;" width="186.118" height="155.105"/>
<g>
	<rect x="411.098" y="162.944" style="fill:#FAD2E3;" width="54.285" height="31.02"/>
	<rect x="341.306" y="162.944" style="fill:#FAD2E3;" width="54.285" height="31.02"/>
</g>
<rect x="193.957" y="193.957" style="fill:#F5A5C7;" width="279.187" height="155.105"/>
<rect x="193.957" y="193.957" style="fill:#FAD2E3;" width="186.118" height="155.105"/>
<g>
	<path style="fill:#1D1D1B;" d="M480.98,186.121H325.879V31.02H31.02v170.78h155.101v139.422H31.02v170.78h294.86V356.899h155.101
		V186.121H480.98z M46.699,186.121V46.699h263.503v139.422H186.121H46.699z M310.201,496.321H46.699V356.899h139.422h124.081
		v139.422H310.201z M465.301,341.22H325.879H201.8V201.799H325.88h139.422V341.22H465.301z"/>
	<polygon style="fill:#1D1D1B;" points="100.984,333.55 85.305,333.55 85.305,325.879 62.209,325.879 62.209,333.55 46.53,333.55 
		46.53,310.201 100.984,310.201 	"/>
	<polygon style="fill:#1D1D1B;" points="170.779,333.55 155.1,333.55 155.1,325.879 132.004,325.879 132.004,333.55 116.325,333.55 
		116.325,310.201 170.779,310.201 	"/>
	<polygon style="fill:#1D1D1B;" points="395.675,178.45 379.996,178.45 379.996,170.78 356.899,170.78 356.899,178.45 
		341.22,178.45 341.22,155.101 395.675,155.101 	"/>
	<polygon style="fill:#1D1D1B;" points="465.47,178.45 449.791,178.45 449.791,170.78 426.695,170.78 426.695,178.45 
		411.016,178.45 411.016,155.101 465.47,155.101 	"/>
</g>
<g>
	<rect x="62.13" y="465.304" style="fill:#FFFFFF;" width="23.265" height="15.679"/>
	<rect x="100.898" y="465.304" style="fill:#FFFFFF;" width="54.285" height="15.679"/>
	<polygon style="fill:#FFFFFF;" points="232.819,248.245 217.141,248.245 217.141,217.141 256,217.141 256,232.819 232.819,232.819 
			"/>
	<rect x="217.141" y="263.759" style="fill:#FFFFFF;" width="15.679" height="15.51"/>
</g>
<g>
	<polygon style="fill:#1D1D1B;" points="170.779,23.349 155.1,23.349 155.1,15.679 132.004,15.679 132.004,23.349 116.325,23.349 
		116.325,0 170.779,0 	"/>
	<polygon style="fill:#1D1D1B;" points="101.012,23.349 85.333,23.349 85.333,15.679 62.236,15.679 62.236,23.349 46.558,23.349 
		46.558,0 101.012,0 	"/>
	<polygon style="fill:#1D1D1B;" points="310.614,23.349 294.936,23.349 294.936,15.679 271.839,15.679 271.839,23.349 
		256.16,23.349 256.16,0 310.614,0 	"/>
	<polygon style="fill:#1D1D1B;" points="240.847,23.349 225.168,23.349 225.168,15.679 202.071,15.679 202.071,23.349 
		186.392,23.349 186.392,0 240.847,0 	"/>
</g>
<rect x="62.13" y="155.105" style="fill:#FFFFFF;" width="116.326" height="15.679"/>
<g>
</g>
<g>
</g>
<g>
</g>
<g>
</g>
<g>
</g>
<g>
</g>
<g>
</g>
<g>
</g>
<g>
</g>
<g>
</g>
<g>
</g>
<g>
</g>
<g>
</g>
<g>
</g>
<g>
</g>
</svg>
