<?xml version="1.0" encoding="iso-8859-1"?>
<!-- Generator: Adobe Illustrator 19.0.0, SVG Export Plug-In . SVG Version: 6.00 Build 0)  -->
<svg version="1.1" id="Layer_1" xmlns="http://www.w3.org/2000/svg" xmlns:xlink="http://www.w3.org/1999/xlink" x="0px" y="0px"
	 viewBox="0 0 512 512" style="enable-background:new 0 0 512 512;" xml:space="preserve">
<polygon style="fill:#CCCCCC;" points="329.208,9.712 329.208,66.703 287.586,66.703 287.586,9.712 223.108,9.712 223.108,66.703 
	181.487,66.703 181.487,9.712 122.933,9.712 108.162,200.007 402.533,200.007 387.762,9.712 "/>
<g>
	<polygon style="fill:#B3B3B3;" points="163.067,200.007 163.067,9.712 122.933,9.712 108.162,200.007 	"/>
	<rect x="137.149" y="200" style="fill:#B3B3B3;" width="236.39" height="303.934"/>
</g>
<g>
	<rect x="137.149" y="200" style="fill:#999999;" width="236.39" height="24.884"/>
	<rect x="137.149" y="200.012" style="fill:#999999;" width="45.467" height="303.934"/>
</g>
<g>
	<path style="fill:#F97C64;" d="M255.348,268.436L255.348,268.436c-16.196,0-29.327,13.13-29.327,29.327v70.206h58.654v-70.206
		C284.674,281.565,271.544,268.436,255.348,268.436z"/>
	<path style="fill:#F97C64;" d="M189.585,104.918L189.585,104.918c-16.196,0-29.327,13.13-29.327,29.327v28.438h58.654v-28.438
		C218.911,118.047,205.782,104.918,189.585,104.918z"/>
	<path style="fill:#F97C64;" d="M321.11,104.918L321.11,104.918c-16.196,0-29.327,13.13-29.327,29.327v28.438h58.654v-28.438
		C350.437,118.047,337.307,104.918,321.11,104.918z"/>
</g>
<path d="M412.046,198.495L397.275,8.2c-0.359-4.629-4.219-8.2-8.86-8.2h-58.553c-4.908,0-8.887,3.979-8.887,8.887v48.104h-23.848
	V8.887c0-4.908-3.979-8.887-8.887-8.887H223.76c-4.908,0-8.887,3.979-8.887,8.887v48.104h-23.848V8.887
	c0-4.908-3.979-8.887-8.887-8.887h-58.553c-4.642,0-8.501,3.572-8.861,8.2l-4.767,61.411c-0.379,4.894,3.28,9.168,8.173,9.549
	c4.882,0.383,9.168-3.279,9.549-8.173l4.132-53.212h41.442v48.104c0,4.908,3.979,8.887,8.887,8.887h41.622
	c4.908,0,8.887-3.979,8.887-8.887V17.775h46.705v48.104c0,4.908,3.979,8.887,8.887,8.887h41.622c4.908,0,8.887-3.979,8.887-8.887
	V17.775h41.442l13.391,172.52H118.418l6.673-85.962c0.379-4.894-3.28-9.168-8.173-9.549c-4.887-0.38-9.169,3.279-9.549,8.173
	l-7.416,95.537c-0.192,2.469,0.655,4.906,2.338,6.724s4.047,2.851,6.523,2.851h20.103v295.043c0,4.908,3.979,8.887,8.887,8.887
	h236.39c4.908,0,8.887-3.979,8.887-8.887V272.589c0-4.908-3.979-8.887-8.887-8.887c-4.908,0-8.887,3.979-8.887,8.887v221.636
	H146.693V208.07h218.616v31.34c0,4.908,3.979,8.887,8.887,8.887c4.908,0,8.887-3.979,8.887-8.887v-31.34h20.103
	c2.477,0,4.841-1.033,6.523-2.851C411.39,203.401,412.237,200.963,412.046,198.495z"/>
<path d="M294.214,367.144v-70.206c0-21.071-17.143-38.214-38.214-38.214s-38.214,17.143-38.214,38.214v12.705
	c0,4.908,3.979,8.887,8.887,8.887s8.887-3.979,8.887-8.887v-12.705c0-11.27,9.169-20.44,20.44-20.44
	c11.27,0,20.44,9.169,20.44,20.44v61.319h-40.878v-16.62c0-4.908-3.979-8.887-8.887-8.887s-8.887,3.979-8.887,8.887v25.508
	c0,4.908,3.979,8.887,8.887,8.887h58.654C290.235,376.031,294.214,372.052,294.214,367.144z"/>
<path d="M219.564,170.744c4.908,0,8.887-3.979,8.887-8.887v-28.438c0-21.071-17.143-38.214-38.214-38.214
	c-21.071,0-38.214,17.143-38.214,38.214v28.438c0,4.908,3.979,8.887,8.887,8.887H219.564z M169.799,133.42
	c0-11.27,9.169-20.44,20.44-20.44s20.44,9.169,20.44,20.44v19.551h-40.879L169.799,133.42L169.799,133.42z"/>
<path d="M351.089,170.744c4.908,0,8.887-3.979,8.887-8.887v-28.438c0-21.071-17.143-38.214-38.214-38.214
	c-21.071,0-38.214,17.143-38.214,38.214v28.438c0,4.908,3.979,8.887,8.887,8.887H351.089z M301.324,133.42
	c0-11.27,9.169-20.44,20.44-20.44c11.27,0,20.44,9.169,20.44,20.44v19.551h-40.879V133.42z"/>
<path d="M196.317,458.523c-4.908,0-8.887,3.979-8.887,8.887c0,4.908,3.979,8.887,8.887,8.887h59.249
	c4.908,0,8.887-3.979,8.887-8.887c0-4.908-3.979-8.887-8.887-8.887h-31.402v-19.169h19.552c4.908,0,8.887-3.979,8.887-8.887
	c0-4.908-3.979-8.887-8.887-8.887h-59.249c-4.908,0-8.887,3.979-8.887,8.887c0,4.908,3.979,8.887,8.887,8.887h21.922v19.169H196.317
	z"/>
<g>
</g>
<g>
</g>
<g>
</g>
<g>
</g>
<g>
</g>
<g>
</g>
<g>
</g>
<g>
</g>
<g>
</g>
<g>
</g>
<g>
</g>
<g>
</g>
<g>
</g>
<g>
</g>
<g>
</g>
</svg>
